<?xml version="1.0" encoding="UTF-8"?>
<svg id="Layer_1" xmlns="http://www.w3.org/2000/svg" version="1.1" viewBox="0 0 500 448">
  <!-- Generator: Adobe Illustrator 29.8.1, SVG Export Plug-In . SVG Version: 2.1.1 Build 2)  -->
  <defs>
    <style>
      .st0 {
        fill: #fff;
      }
    </style>
  </defs>
  <path class="st0" d="M0,58c2.65,8.92,11.52,14.95,19.64,18.86,33.57,16.14,74.68,14.39,109.84,21.16,2.32.45,2.66,2.6,5.96,3.04,7.45,1.01,17.46-.43,25.01-1.1l67.49,1.1,1.11,25.39-4.92,2.2-1.33,20.66c-4.41,5.14-9.48,11.36-16.8,11.69l1.5-3.99-6.15,5.87-13.36-.88c.33-3.27.15-5.48-2-7.99,6.55,1.33,12.3.03,18.81-.74,4.52-.53,2.97-1.06,3.85-1.26,2.75-.62,6.83.38,9.85-.01,1.38-.18,3.13-.73,1.48-2-6.07.03-12.36-.28-18.37-1.13-7.73-1.1-21.21-5.79-27.89-4.63-2.24.39-5.09,2.49-6.41,2.58-1.66.11-12.05-4.44-12.85.24-11.69-7.5-24.44-.89-37.1.82-6.16.83-13.14,1.06-19.37,1.13-1.59,1.21,0,1.82,1.47,2,8.12.99,16.93.62,25.06.95,9.04.38,18.39,2.48,27.46.05-3.12,3.09-3.48,5.6-3,9.99.44.41,5.61-.94,5.99,1.98l-5.05,2.6c.71,4.29-1.48,10.11,1.56,13.42h42l1.01,2c-4.88,3.2-5.59,8.46-8.09,12.92-.93,1.66-3.32,2.78-3.9,4.1-.31.69-1.5,7.78-1.47,8.59.08,2.85,3.05,1.81,3.76,2.6.85.95,2.26,11.86,4.74,14.76,2.63,3.08,9.2,2.74,10.04,3.96,1.34,1.96-.84,8.29,3.09,9.91l41.88-.59c1.51.28,2.36,8.23,2.5,10.22,3.17,46.65.43,96.92,1.92,144.08.09,2.97,2.11,6.93.54,9.46-.6.97-2.89,1.55-3.99,3.01-3.43,4.56-.97,23.21-.52,29.49.09,1.32-.89,2.8-.83,4.02.34,6.62,5.16,7.04,9.83,9.47H0V58Z"/>
  <path class="st0" d="M500,54v394h-238c2.68-1.64,7.72-2.04,8.79-5.71,2.26-7.76-1.26-24.03.67-32.81.46-5.92-6.41-7.29-6.48-12.96l-2.98-158.52h20c.29,0-.62,3.67,2.73,4.78l28.27,3.21c-.37-2.26-3.66-1.65-4.54-2.94-2.65-3.87,1.95-4.31,2.4-5.67.53-1.62.96-5.73,1.58-8.32.24-1.01-.63-2.55-.36-2.92.35-.48,4.32-1.26,5.63-2.45,4.16-3.78,4.53-15.23,5.45-20.6l2.92-.62c.35-1.64-.67-8.09-1.6-9.44-1.05-1.53-3.22-1.33-4.21-2.29-1.14-1.11-1.95-5.15-3.25-6.73,6.51,3.56,7.65-5.19,9.63-5.88,1.19-.41,13.24-.45,14.69-.11.36.09,1.97,3.66,5.69,1.99-13.13,20.22,23.2,20,10,0l4.06-.45,1.85-15c-1.96-.89-4.14-4.04-5.9-2.55-1.14-3.6,5.31-2.43,5.93-3.06-.01-1.92.49-4.6-.08-6.34-.62-1.89-3.81-.77-2.85-3.6,12.55,2.76,25.81.02,38.5-.99,5.15-.41,10.67.97,15.48-1.51-4.76-3.01-11.88-1.03-17.48-1.52-9.13-.79-20.42-4.79-29.07-4.04-3.88.34-6.15,2.43-9.07,2.72-6.28.64-14.01-.84-19.96-1.6-7.88-1-16.45,3.31-24.26,4.36-2.36.32-5.42-.76-8.55-.34s-15.65,4.05-17.01,3.74c-1.03-.24-1.84-1.82-2.15-2.8-3.49-11.04,15.3-23.55-11.44-22.05-.49-4.09-2.42-23.92-.07-25.56,32.47-1.05,64.62-4.73,96.75-9.04,23.56-3.16,48.04-6.51,71.51-11.71,19.2-4.25,43.54-9.49,56.81-24.69Z"/>
  <path d="M280,0c1.04,1.66,3.8,1,5.49,1.02,39.74.42,77.34,1.23,116.87,6.12,11.42,1.41,24.14,4.97,35.16,5.84,12.34.98,25.91-.59,36.85,7.15,2.04,1.44,2.53,3.39,4.28,4.72,6.5,4.96,17.52,6.52,21.36,16.14v13c-13.27,15.2-37.61,20.43-56.81,24.69-23.47,5.2-47.94,8.54-71.51,11.71-32.12,4.31-64.28,7.99-96.75,9.04-2.34,1.63-.42,21.47.07,25.56,26.74-1.5,7.94,11.01,11.44,22.05.31.99,1.12,2.56,2.15,2.8,1.36.31,13.98-3.34,17.01-3.74s6.19.66,8.55.34c7.81-1.05,16.39-5.37,24.26-4.36,5.95.76,13.67,2.24,19.96,1.6,2.92-.3,5.19-2.39,9.07-2.72,8.64-.75,19.93,3.25,29.07,4.04,5.6.48,12.72-1.49,17.48,1.52-4.81,2.47-10.34,1.1-15.48,1.51-12.69,1.01-25.96,3.75-38.5.99-.95,2.83,2.24,1.71,2.85,3.6.57,1.74.07,4.43.08,6.34-.63.63-7.07-.54-5.93,3.06,1.75-1.49,3.93,1.66,5.9,2.55l-1.85,15-4.06.45c13.2,20-23.13,20.22-10,0-3.71,1.68-5.33-1.9-5.69-1.99-1.44-.35-13.5-.31-14.69.11-1.97.69-3.11,9.44-9.63,5.88,1.31,1.58,2.12,5.63,3.25,6.73.99.96,3.16.76,4.21,2.29.93,1.35,1.94,7.8,1.6,9.44l-2.92.62c-.92,5.38-1.29,16.82-5.45,20.6-1.31,1.19-5.27,1.97-5.63,2.45-.27.37.6,1.91.36,2.92-.61,2.59-1.05,6.7-1.58,8.32-.44,1.36-5.04,1.8-2.4,5.67.88,1.29,4.17.68,4.54,2.94l-28.27-3.21c-3.35-1.11-2.43-4.78-2.73-4.78h-20l2.98,158.52c.07,5.68,6.94,7.04,6.48,12.96-1.93,8.78,1.59,25.05-.67,32.81-1.07,3.67-6.11,4.06-8.79,5.71h-8c-4.68-2.44-9.49-2.86-9.83-9.47-.06-1.23.92-2.71.83-4.02-.45-6.28-2.91-24.93.52-29.49,1.1-1.46,3.39-2.05,3.99-3.01,1.57-2.53-.45-6.49-.54-9.46-1.48-47.17,1.25-97.43-1.92-144.08-.14-1.99-.99-9.93-2.5-10.22l-41.88.59c-3.93-1.61-1.75-7.94-3.09-9.91-.84-1.23-7.41-.89-10.04-3.96-2.48-2.91-3.89-13.81-4.74-14.76-.71-.79-3.67.25-3.76-2.6-.02-.81,1.17-7.9,1.47-8.59.59-1.32,2.97-2.44,3.9-4.1,2.5-4.46,3.21-9.71,8.09-12.92l-1.01-2h-42c-3.05-3.3-.85-9.13-1.56-13.42l5.05-2.6c-.38-2.92-5.55-1.57-5.99-1.98-.48-4.38-.12-6.9,3-9.99-9.07,2.43-18.42.32-27.46-.05-8.13-.34-16.94.04-25.06-.95-1.48-.18-3.06-.79-1.47-2,6.23-.07,13.21-.3,19.37-1.13,12.66-1.71,25.41-8.32,37.1-.82.8-4.68,11.19-.13,12.85-.24,1.32-.09,4.17-2.19,6.41-2.58,6.68-1.16,20.16,3.53,27.89,4.63,6,.85,12.3,1.17,18.37,1.13,1.65,1.26-.1,1.82-1.48,2-3.03.39-7.1-.61-9.85.01-.88.2.67.72-3.85,1.26-6.51.77-12.26,2.07-18.81.74,2.15,2.51,2.32,4.73,2,7.99l13.36.88,6.15-5.87-1.5,3.99c7.32-.34,12.39-6.55,16.8-11.69l1.33-20.66,4.92-2.2-1.11-25.39-67.49-1.1c-7.55.68-17.56,2.11-25.01,1.1-3.29-.45-3.63-2.6-5.96-3.04-35.17-6.77-76.27-5.02-109.84-21.16-8.12-3.91-17-9.94-19.64-18.86v-4c4.87-2.87,4.28-8.86,6.51-11.99s9.78-4.96,7.49-10.01c3.25-1.2,6.16,4.03,6.56,4.06.99.08,15.19-6.76,18.19-7.81C109.5,3.42,198.09,2.45,272.62,1.07l3.38-1.07h4ZM436,21.99c-.19-1.52-1.42-1.6-2.6-1.89-28.96-7.2-69.79-7.98-99.94-9.06-75.81-2.7-153.72-1.7-228.79,10.13-21.37,3.36-48.98,8.22-68.93,16.07-1.92.75-5.63,2.05-6.73,3.76l22.51,4c51.84,1.07,106.83,15.24,158,17,8.5.29,15.3-3.8,23.84-3.03l3.64,6.04c.4-2.77-1.65-5.5-.84-8.28,1.47-5.09,21.05-5.5,25.35-4.71,3.89.71,2.86,5.24,3.61,5.89.61.54,13.43.21,16.15,1.87l148.97-34.84c1.52-2.21,2.92-2.99,5.78-2.94ZM473.99,36c-.63.5-12.42-6.5-14.62-6.72-4.4-.44-22.64,7.12-25.18,5.53-.47-.29-.48-2.23-1.82-2.7l-153.37,34.39,5.51,4.47c32,4,63.88,9.31,96.04,10.97,1.91.1,3.28,1.67,3.94,1.68s5.16-2.47,8.04-2.63c26.66-1.48,71.05-7.91,94.38-21.57,24.2-14.16,5.25-20.35-10.52-28.33-2.33-.85-1.71,4.36-2.41,4.91ZM42.04,51.04l-.49,3.99c-1.88,2.88-17.32-3.48-21.13-3.94-5.24-.64-14.57.78-15.17,7.23.42,9.26,24.32,17.56,31.98,19.94,32.59,10.15,69.01,13.44,102.92,16.16,26.84-3.96,52.89-12.53,78.9-20.09,0-2.54.76-6.06-2.55-6.34-58.14-5.74-116.14-12.99-174.45-16.96ZM369,86.01l-85.43-10.03c-5.54.83-2.93,8.58-3.77,12.31-.53,2.37-3.38,3.84-2.79,6.7,28.32.88,56.26-4.52,84.36-7.13l7.63-1.85ZM226,96.99c.45-.33-3.5-5.72-3.76-6.73-.65-2.58.77-10.67-1.71-11.09l-61.54,16.33,67.01,1.49ZM231,129c9.82,1.56,5.02-8.02,4.52-14.02l-4.52-7.98v22ZM272,128.5c.92-6.49-.67-14.79,0-21.5-1.29.22-5,7.04-5,7.5v20.5h2.98c-.56-2.31,1.81-5.02,2.02-6.5ZM293.99,159.02c-.13-.15-2.08-.37-3.04-1.43-3.57-3.93-3.3-7.55-9.96-5.58-2.1,2.08,6.16,7.12,7.72,7.87,1.04.5,7.88,2.07,5.28-.85ZM312,152h-22c6.54,7.47,12.09,10.1,22,7.99-1.45-2.74-1.43-5.26,0-7.99ZM341,152h-15l1.01,7-4,.49c5.07,5.75,14.08-.02,20.99,1.5.73-3.78-2.06-.68-3.01-1.44l-.9-1.18.92-6.38ZM228,154.01l-9.98,7.49c2.29,2.93,5.32,3.93,8.98,3.49-1.32-4.11.11-7.04,1-10.99ZM281.01,159c-.79,5.64,1.95,8.41,5.98,3.5-.65-1.09-5.12-4.42-5.98-3.5Z"/>
  <path class="st0" d="M276,0l-3.38,1.07C198.09,2.45,109.5,3.42,38.76,28.26c-3,1.05-17.2,7.89-18.19,7.81-.4-.03-3.32-5.27-6.56-4.06,2.29,5.05-5.25,6.86-7.49,10.01s-1.64,9.12-6.51,11.99V0h276Z"/>
  <path class="st0" d="M280,0h220v41c-3.84-9.62-14.86-11.18-21.36-16.14-1.74-1.33-2.24-3.28-4.28-4.72-10.94-7.74-24.51-6.18-36.85-7.15-11.02-.87-23.74-4.43-35.16-5.84-39.53-4.89-77.13-5.71-116.87-6.12-1.69-.02-4.45.64-5.49-1.02Z"/>
  <path class="st0" d="M436,21.99c-2.86-.06-4.26.72-5.78,2.94l-148.97,34.84c-2.71-1.67-15.53-1.33-16.15-1.87-.74-.65.28-5.18-3.61-5.89-4.3-.79-23.88-.37-25.35,4.71-.81,2.79,1.24,5.51.84,8.28l-3.64-6.04c-8.54-.77-15.33,3.32-23.84,3.03-51.17-1.76-106.16-15.93-158-17l-22.51-4c1.1-1.71,4.81-3,6.73-3.76,19.95-7.85,47.57-12.7,68.93-16.07,75.08-11.82,152.98-12.82,228.79-10.13,30.16,1.07,70.98,1.85,99.94,9.06,1.18.29,2.4.37,2.6,1.89Z"/>
  <path class="st0" d="M473.99,36c.7-.55.08-5.75,2.41-4.91,15.77,7.98,34.72,14.17,10.52,28.33-23.33,13.66-67.72,20.08-94.38,21.57-2.88.16-7.41,2.64-8.04,2.63s-2.03-1.58-3.94-1.68c-32.16-1.66-64.04-6.97-96.04-10.97l-5.51-4.47,153.37-34.39c1.34.47,1.35,2.41,1.82,2.7,2.54,1.59,20.77-5.96,25.18-5.53,2.21.22,13.99,7.21,14.62,6.72Z"/>
  <path class="st0" d="M42.04,51.04c58.31,3.98,116.31,11.22,174.45,16.96,3.31.28,2.55,3.8,2.55,6.34-26,7.56-52.06,16.12-78.9,20.09-33.91-2.72-70.32-6.02-102.92-16.16-7.67-2.39-31.56-10.68-31.98-19.94.6-6.45,9.93-7.88,15.17-7.23,3.81.47,19.25,6.82,21.13,3.94l.49-3.99Z"/>
  <path class="st0" d="M369,86.01l-7.63,1.85c-28.09,2.61-56.04,8.02-84.36,7.13-.59-2.86,2.26-4.33,2.79-6.7.84-3.73-1.77-11.48,3.77-12.31l85.43,10.03Z"/>
  <path class="st0" d="M226,96.99l-67.01-1.49,61.54-16.33c2.48.42,1.06,8.51,1.71,11.09.26,1.02,4.2,6.4,3.76,6.73Z"/>
  <path class="st0" d="M341,152l-.92,6.38.9,1.18c.96.76,3.75-2.34,3.01,1.44-6.91-1.52-15.92,4.25-20.99-1.5l4-.49-1.01-7h15Z"/>
  <path class="st0" d="M312,152c-1.43,2.73-1.45,5.25,0,7.99-9.91,2.11-15.46-.52-22-7.99h22Z"/>
  <path class="st0" d="M272,128.5c-.21,1.48-2.58,4.19-2.02,6.5h-2.98v-20.5c0-.46,3.71-7.28,5-7.5-.67,6.71.92,15.01,0,21.5Z"/>
  <path class="st0" d="M231,129v-22l4.52,7.98c.5,6,5.3,15.58-4.52,14.02Z"/>
  <path class="st0" d="M228,154.01c-.89,3.95-2.32,6.88-1,10.99-3.66.44-6.69-.57-8.98-3.49l9.98-7.49Z"/>
  <path class="st0" d="M293.99,159.02c2.6,2.92-4.23,1.35-5.28.85-1.56-.75-9.82-5.79-7.72-7.87,6.66-1.97,6.39,1.65,9.96,5.58.96,1.06,2.9,1.28,3.04,1.43Z"/>
  <path class="st0" d="M281.01,159c.86-.93,5.32,2.4,5.98,3.5-4.03,4.92-6.77,2.14-5.98-3.5Z"/>
</svg>